<?xml version="1.0" encoding="UTF-8" standalone="no"?>
<!-- Created with Inkscape (http://www.inkscape.org/) -->

<svg
   xmlns:dc="http://purl.org/dc/elements/1.1/"
   xmlns:cc="http://creativecommons.org/ns#"
   xmlns:rdf="http://www.w3.org/1999/02/22-rdf-syntax-ns#"
   xmlns:svg="http://www.w3.org/2000/svg"
   xmlns="http://www.w3.org/2000/svg"
   xmlns:sodipodi="http://sodipodi.sourceforge.net/DTD/sodipodi-0.dtd"
   xmlns:inkscape="http://www.inkscape.org/namespaces/inkscape"
   width="40"
   height="40"
   viewBox="0 0 10.583333 10.583333"
   version="1.1"
   id="svg8"
   inkscape:version="0.91 r13725"
   sodipodi:docname="tool-beaconeffect.svg">
  <defs
     id="defs2" />
  <sodipodi:namedview
     id="base"
     pagecolor="#ffffff"
     bordercolor="#666666"
     borderopacity="1.0"
     inkscape:pageopacity="0.0"
     inkscape:pageshadow="2"
     inkscape:zoom="22.4"
     inkscape:cx="26.321907"
     inkscape:cy="29.847608"
     inkscape:document-units="px"
     inkscape:current-layer="layer1"
     showgrid="true"
     units="px"
     inkscape:window-width="1920"
     inkscape:window-height="997"
     inkscape:window-x="0"
     inkscape:window-y="0"
     inkscape:window-maximized="1"
     inkscape:snap-bbox="true"
     inkscape:bbox-paths="true"
     inkscape:bbox-nodes="true"
     inkscape:snap-bbox-edge-midpoints="true"
     inkscape:snap-bbox-midpoints="true"
     inkscape:object-paths="true"
     inkscape:snap-intersection-paths="true"
     inkscape:snap-smooth-nodes="true"
     inkscape:snap-midpoints="true"
     inkscape:snap-object-midpoints="true"
     inkscape:snap-center="true"
     inkscape:snap-text-baseline="true">
    <inkscape:grid
       type="xygrid"
       id="grid815"
       originx="0.13229166"
       originy="0.13229166"
       dotted="true" />
    <inkscape:grid
       type="xygrid"
       id="grid832" />
  </sodipodi:namedview>
  <metadata
     id="metadata5">
    <rdf:RDF>
      <cc:Work
         rdf:about="">
        <dc:format>image/svg+xml</dc:format>
        <dc:type
           rdf:resource="http://purl.org/dc/dcmitype/StillImage" />
        <dc:title />
      </cc:Work>
    </rdf:RDF>
  </metadata>
  <g
     inkscape:label="Calque 1"
     inkscape:groupmode="layer"
     id="layer1"
     transform="translate(0,-286.41667)">
    <path
       style="opacity:1;fill:none;fill-opacity:1;fill-rule:evenodd;stroke:#bebebe;stroke-width:0.52916664;stroke-linecap:round;stroke-linejoin:miter;stroke-miterlimit:4;stroke-dasharray:none;stroke-dashoffset:0;stroke-opacity:1;marker:none;paint-order:markers fill stroke"
       d="m 1.3229165,288.00415 7.7036393,0.003 -0.030723,7.67026 -7.6729168,0 z"
       id="rect814"
       inkscape:connector-curvature="0"
       sodipodi:nodetypes="ccccc" />
    <g
       id="g4142"
       transform="matrix(1.4999995,0,0,1.4999995,-2.7781225,-145.32485)">
      <path
         inkscape:connector-curvature="0"
         id="rect4152"
         d="m 4.4979166,291.70833 0,0.52917 -0.5291666,0 0,0.52917 -0.5291667,0 0,0.52916 -0.5291667,0 0,0.52917 4.7625,0 0,-0.52917 -0.5291667,0 0,-0.52916 -0.5291666,0 0,-0.52917 -0.5291667,0 0,-0.52917 -1.5875,0 z"
         style="color:#000000;clip-rule:nonzero;display:inline;overflow:visible;visibility:visible;opacity:1;isolation:auto;mix-blend-mode:normal;color-interpolation:sRGB;color-interpolation-filters:linearRGB;solid-color:#000000;solid-opacity:1;fill:#25c937;fill-opacity:1;fill-rule:evenodd;stroke:none;stroke-width:0.66145831;stroke-linecap:round;stroke-linejoin:miter;stroke-miterlimit:4;stroke-dasharray:none;stroke-dashoffset:0;stroke-opacity:1;marker:none;paint-order:markers fill stroke;color-rendering:auto;image-rendering:auto;shape-rendering:auto;text-rendering:auto;enable-background:accumulate" />
      <path
         inkscape:connector-curvature="0"
         id="rect4160"
         d="m 4.4979166,291.70833 0,0.0661 0,0.46302 -0.4630208,0 -0.066146,0 0,0.0661 0,0.46302 -0.4630209,0 -0.066146,0 0,0.0661 0,0.46302 -0.4630208,0 -0.066146,0 0,0.0661 0,0.46302 0.066146,0 0,-0.46302 0.4630208,0 0,0.46302 0.066146,0 0,-0.46302 0.4630209,0 0,0.46302 0.066146,0 0,-0.46302 0.4630208,0 0,0.46302 0.066146,0 0,-0.46302 0.4630209,0 0,0.46302 0.066146,0 0,-0.46302 0.4630208,0 0,0.46302 0.066146,0 0,-0.46302 0.4630208,0 0,0.46302 0.066146,0 0,-0.46302 0.4630209,0 0,0.46302 0.066146,0 0,-0.46302 0.4630208,0 0,0.46302 0.066146,0 0,-0.46302 0.4630209,0 0,-0.0661 -0.4630209,0 -0.066146,0 -0.4630208,0 0,-0.46302 0.4630208,0 0,-0.0661 -0.4630208,0 -0.066146,0 -0.4630209,0 0,-0.46302 0.4630209,0 0,-0.0661 -0.9921875,0 0,-0.46302 0.4630208,0 0,-0.0661 -0.4630208,0 -0.066146,0 -0.4630208,0 -0.066146,0 -0.4630209,0 -0.066146,0 z m 0.066146,0.0661 0.4630209,0 0,0.46302 -0.4630209,0 0,-0.46302 z m 0.5291667,0 0.4630208,0 0,0.46302 -0.4630208,0 0,-0.46302 z m -1.0583333,0.52917 0.4630208,0 0,0.46302 -0.4630208,0 0,-0.46302 z m 0.5291666,0 0.4630209,0 0,0.46302 -0.4630209,0 0,-0.46302 z m 0.5291667,0 0.4630208,0 0,0.46302 -0.4630208,0 0,-0.46302 z m 0.5291667,0 0.4630208,0 0,0.46302 -0.4630208,0 0,-0.46302 z m -2.1166667,0.52916 0.4630209,0 0,0.46302 -0.4630209,0 0,-0.46302 z m 0.5291667,0 0.4630208,0 0,0.46302 -0.4630208,0 0,-0.46302 z m 0.5291666,0 0.4630209,0 0,0.46302 -0.4630209,0 0,-0.46302 z m 0.5291667,0 0.4630208,0 0,0.46302 -0.4630208,0 0,-0.46302 z m 0.5291667,0 0.4630208,0 0,0.46302 -0.4630208,0 0,-0.46302 z m 0.5291666,0 0.4630209,0 0,0.46302 -0.4630209,0 0,-0.46302 z"
         style="color:#000000;clip-rule:nonzero;display:inline;overflow:visible;visibility:visible;opacity:1;isolation:auto;mix-blend-mode:normal;color-interpolation:sRGB;color-interpolation-filters:linearRGB;solid-color:#000000;solid-opacity:1;fill:#ffffff;fill-opacity:0.41610742;fill-rule:evenodd;stroke:none;stroke-width:2.5;stroke-linecap:round;stroke-linejoin:miter;stroke-miterlimit:4;stroke-dasharray:none;stroke-dashoffset:0;stroke-opacity:1;marker:none;paint-order:markers fill stroke;color-rendering:auto;image-rendering:auto;shape-rendering:auto;text-rendering:auto;enable-background:accumulate" />
      <rect
         y="291.17917"
         x="5.0270834"
         height="0.52916664"
         width="0.52916664"
         id="rect4779"
         style="color:#000000;clip-rule:nonzero;display:inline;overflow:visible;visibility:visible;opacity:1;isolation:auto;mix-blend-mode:normal;color-interpolation:sRGB;color-interpolation-filters:linearRGB;solid-color:#000000;solid-opacity:1;fill:#e6e6e6;fill-opacity:1;fill-rule:evenodd;stroke:none;stroke-width:2.5;stroke-linecap:round;stroke-linejoin:miter;stroke-miterlimit:4;stroke-dasharray:none;stroke-dashoffset:0;stroke-opacity:1;marker:none;paint-order:markers fill stroke;color-rendering:auto;image-rendering:auto;shape-rendering:auto;text-rendering:auto;enable-background:accumulate" />
      <rect
         y="291.31146"
         x="5.1593747"
         height="0.26458332"
         width="0.26458332"
         id="rect4781"
         style="color:#000000;clip-rule:nonzero;display:inline;overflow:visible;visibility:visible;opacity:1;isolation:auto;mix-blend-mode:normal;color-interpolation:sRGB;color-interpolation-filters:linearRGB;solid-color:#000000;solid-opacity:1;fill:#7edcf7;fill-opacity:1;fill-rule:evenodd;stroke:none;stroke-width:2.5;stroke-linecap:round;stroke-linejoin:miter;stroke-miterlimit:4;stroke-dasharray:none;stroke-dashoffset:0;stroke-opacity:1;marker:none;paint-order:markers fill stroke;color-rendering:auto;image-rendering:auto;shape-rendering:auto;text-rendering:auto;enable-background:accumulate" />
      <rect
         y="291.57605"
         x="5.1593747"
         height="0.13229166"
         width="0.26458332"
         id="rect4783"
         style="color:#000000;clip-rule:nonzero;display:inline;overflow:visible;visibility:visible;opacity:1;isolation:auto;mix-blend-mode:normal;color-interpolation:sRGB;color-interpolation-filters:linearRGB;solid-color:#000000;solid-opacity:1;fill:#000000;fill-opacity:1;fill-rule:evenodd;stroke:none;stroke-width:2.5;stroke-linecap:round;stroke-linejoin:miter;stroke-miterlimit:4;stroke-dasharray:none;stroke-dashoffset:0;stroke-opacity:1;marker:none;paint-order:markers fill stroke;color-rendering:auto;image-rendering:auto;shape-rendering:auto;text-rendering:auto;enable-background:accumulate" />
      <path
         style="color:#000000;clip-rule:nonzero;display:inline;overflow:visible;visibility:visible;opacity:1;isolation:auto;mix-blend-mode:normal;color-interpolation:sRGB;color-interpolation-filters:linearRGB;solid-color:#000000;solid-opacity:1;fill:#7edcf7;fill-opacity:1;fill-rule:evenodd;stroke:none;stroke-width:2.5;stroke-linecap:round;stroke-linejoin:miter;stroke-miterlimit:4;stroke-dasharray:none;stroke-dashoffset:0;stroke-opacity:1;marker:none;paint-order:markers fill stroke;color-rendering:auto;image-rendering:auto;shape-rendering:auto;text-rendering:auto;enable-background:accumulate"
         d="m 5.2255206,287.82773 0.1322917,0 0,3.34445 -0.1322917,0 z"
         id="rect4785"
         inkscape:connector-curvature="0"
         sodipodi:nodetypes="ccccc" />
    </g>
  </g>
</svg>
